<mxfile host="app.diagrams.net" modified="2023-12-11T06:37:28.141Z" agent="Mozilla/5.0 (Windows NT 10.0; Win64; x64) AppleWebKit/537.36 (KHTML, like Gecko) Chrome/119.0.0.0 Safari/537.36" version="22.1.7" etag="wY_l5pPx6w_8qgjDVJh7" type="github">
  <diagram name="第 1 页" id="FAHZatb9ez8hJZ8bTgga">
    <mxGraphModel>
      <root>
        <mxCell id="0" />
        <mxCell id="1" parent="0" />
      </root>
    </mxGraphModel>
  </diagram>
</mxfile>
